<svg xmlns="http://www.w3.org/2000/svg" viewBox="0 0 1284 418" width="1284" height="418" role="img" aria-label="M1 Secrets — the flagship finding" font-family="-apple-system, BlinkMacSystemFont, &quot;Segoe UI&quot;, &quot;Noto Sans&quot;, Helvetica, Arial, sans-serif">
<title>M1 Secrets — the flagship finding</title>
<desc>PR 1–2: scrub the OpenRouter key, fix env truth. The worst finding is a secret that is not scrubbed, not rot.</desc>
<defs><pattern id="dots" width="18" height="18" patternUnits="userSpaceOnUse"><circle cx="1.5" cy="1.5" r="1" fill="rgba(140,149,159,.5)"/></pattern><marker id="mk-added" viewBox="0 0 10 10" refX="8" refY="5" markerWidth="6.5" markerHeight="6.5" orient="auto-start-reverse"><path d="M0,0 L10,5 L0,10 z" fill="#1f883d"/></marker><marker id="mko-added" viewBox="0 0 10 10" refX="10" refY="5" markerWidth="6.5" markerHeight="6.5" orient="auto-start-reverse"><path d="M2,1 L10,5 L2,9" fill="none" stroke="#1f883d" stroke-width="1.6" stroke-linecap="round" stroke-linejoin="round"/></marker><marker id="mk-modified" viewBox="0 0 10 10" refX="8" refY="5" markerWidth="6.5" markerHeight="6.5" orient="auto-start-reverse"><path d="M0,0 L10,5 L0,10 z" fill="#bf8700"/></marker><marker id="mko-modified" viewBox="0 0 10 10" refX="10" refY="5" markerWidth="6.5" markerHeight="6.5" orient="auto-start-reverse"><path d="M2,1 L10,5 L2,9" fill="none" stroke="#bf8700" stroke-width="1.6" stroke-linecap="round" stroke-linejoin="round"/></marker><marker id="mk-removed" viewBox="0 0 10 10" refX="8" refY="5" markerWidth="6.5" markerHeight="6.5" orient="auto-start-reverse"><path d="M0,0 L10,5 L0,10 z" fill="#cf222e"/></marker><marker id="mko-removed" viewBox="0 0 10 10" refX="10" refY="5" markerWidth="6.5" markerHeight="6.5" orient="auto-start-reverse"><path d="M2,1 L10,5 L2,9" fill="none" stroke="#cf222e" stroke-width="1.6" stroke-linecap="round" stroke-linejoin="round"/></marker><marker id="mk-neutral" viewBox="0 0 10 10" refX="8" refY="5" markerWidth="6.5" markerHeight="6.5" orient="auto-start-reverse"><path d="M0,0 L10,5 L0,10 z" fill="#8c959f"/></marker><marker id="mko-neutral" viewBox="0 0 10 10" refX="10" refY="5" markerWidth="6.5" markerHeight="6.5" orient="auto-start-reverse"><path d="M2,1 L10,5 L2,9" fill="none" stroke="#8c959f" stroke-width="1.6" stroke-linecap="round" stroke-linejoin="round"/></marker></defs>
<rect x="0" y="0" width="1284" height="418" rx="12" fill="#f4f5f7"/>
<rect x="0" y="0" width="1284" height="418" rx="12" fill="url(#dots)"/>
<g><rect class="lanebox" x="16" y="44" width="404" height="358" rx="12" fill="rgba(255,255,255,.55)"/>
<text class="lanelabel" x="32" y="68" font-size="10" font-weight="700" letter-spacing=".12em" fill="#59636e">THE PLAN · HLD DOC</text>
<rect class="lanebox" x="440" y="44" width="404" height="358" rx="12" fill="rgba(255,255,255,.55)"/>
<text class="lanelabel" x="456" y="68" font-size="10" font-weight="700" letter-spacing=".12em" fill="#59636e">THE EVIDENCE · LLD DOC</text>
<rect class="lanebox" x="864" y="44" width="404" height="358" rx="12" fill="rgba(255,255,255,.55)"/>
<text class="lanelabel" x="880" y="68" font-size="10" font-weight="700" letter-spacing=".12em" fill="#59636e">EXECUTION STACK · 18 PRS, 7 MILESTONES</text></g>
<g><path class="glow" stroke="#1f883d" d="M456,123 L439,123 C429.61,123 422,130.61 422,140 L422,220 C422,224.97 417.97,229 413,229 L404,229" fill="none" stroke-width="7" opacity="0.14"/>
<path class="edge edge-added hero" d="M456,123 L439,123 C429.61,123 422,130.61 422,140 L422,220 C422,224.97 417.97,229 413,229 L404,229" marker-end="url(#mk-added)" fill="none" stroke="#1f883d" stroke-width="2.25"/>
<circle r="3" fill="#1f883d"><animateMotion dur="2.1s" repeatCount="indefinite" path="M456,123 L439,123 C429.61,123 422,130.61 422,140 L422,220 C422,224.97 417.97,229 413,229 L404,229"/></circle>
<circle r="3" fill="#1f883d"><animateMotion dur="2.1s" begin="-1.4s" repeatCount="indefinite" path="M456,123 L439,123 C429.61,123 422,130.61 422,140 L422,220 C422,224.97 417.97,229 413,229 L404,229"/></circle>
<circle r="3" fill="#1f883d"><animateMotion dur="2.1s" begin="-0.7s" repeatCount="indefinite" path="M456,123 L439,123 C429.61,123 422,130.61 422,140 L422,220 C422,224.97 417.97,229 413,229 L404,229"/></circle>
<path class="edge edge-added" d="M404,245 L421,245 C430.39,245 438,252.61 438,262 L438,269.5 C438,283.03 448.97,294 462.5,294 L825.5,294 C841.24,294 854,306.76 854,322.5 L854,338 C854,345.18 859.82,351 867,351 L880,351" marker-end="url(#mk-added)" fill="none" stroke="#1f883d" stroke-width="1.5"/></g>
<g><g class="cardsh" filter="drop-shadow(0 1px 2px rgba(31,35,40,.14))"><rect class="card card-added" x="32" y="206" width="372" height="62" rx="10" fill="#ffffff" stroke-width="1" stroke="#1f883d" stroke-opacity="0.55"/>
<rect class="chip" x="46" y="224" width="26" height="26" rx="7" fill="#f1f3f5"/><g><circle class="glyph" fill="#59636e" cx="54" cy="237" r="1.8"/>
<circle class="glyph" fill="#59636e" cx="59" cy="237" r="1.8"/>
<circle class="glyph" fill="#59636e" cx="64" cy="237" r="1.8"/></g>
<text class="ntitle" x="82" y="233" font-size="13" font-weight="600" fill="#1f2328">repo-hygiene-sweep.md</text>
<text class="nsub" x="82" y="251" font-size="9.5" fill="#59636e" font-family="ui-monospace, SFMono-Regular, &quot;SF Mono&quot;, Menlo, Consolas, monospace">docs/plans/</text>
<g class="bdg bdg-added"><rect x="356.45" y="198" width="40.55" height="16" rx="8" fill="#b9f0c4" stroke="rgba(31,136,61,.55)" stroke-width="1"/><text x="376.73" y="209" text-anchor="middle" font-size="8.5" font-weight="700" letter-spacing=".06em" fill="#116329">NEW</text></g></g>
<g class="cardsh" filter="drop-shadow(0 1px 2px rgba(31,35,40,.14))"><rect class="card card-added" x="456" y="92" width="372" height="62" rx="10" fill="#ffffff" stroke-width="1" stroke="#1f883d" stroke-opacity="0.55"/>
<rect class="chip" x="470" y="110" width="26" height="26" rx="7" fill="#f1f3f5"/><g><circle class="glyph" fill="#59636e" cx="478" cy="123" r="1.8"/>
<circle class="glyph" fill="#59636e" cx="483" cy="123" r="1.8"/>
<circle class="glyph" fill="#59636e" cx="488" cy="123" r="1.8"/></g>
<text class="ntitle" x="506" y="119" font-size="13" font-weight="600" fill="#1f2328">repo-hygiene-sweep-lld.md</text>
<text class="nsub" x="506" y="137" font-size="9.5" fill="#59636e" font-family="ui-monospace, SFMono-Regular, &quot;SF Mono&quot;, Menlo, Consolas, monospace">docs/plans/</text>
<g class="bdg bdg-added"><rect x="780.45" y="84" width="40.55" height="16" rx="8" fill="#b9f0c4" stroke="rgba(31,136,61,.55)" stroke-width="1"/><text x="800.73" y="95" text-anchor="middle" font-size="8.5" font-weight="700" letter-spacing=".06em" fill="#116329">NEW</text></g></g>
<g class="cardsh" filter="drop-shadow(0 1px 2px rgba(31,35,40,.14))"><rect class="card card-added" x="880" y="320" width="372" height="62" rx="10" fill="#ffffff" stroke-width="1" stroke="#1f883d" stroke-opacity="0.55"/>
<rect class="chip" x="894" y="338" width="26" height="26" rx="7" fill="#f1f3f5"/><g><circle class="glyph-stroke" stroke="#59636e" stroke-width="1.4" fill="none" cx="907" cy="351" r="6.5"/>
<path class="glyph-stroke" d="M907,347.5 V351 H910" stroke="#59636e" stroke-width="1.4" fill="none"/></g>
<text class="ntitle" x="930" y="347" font-size="13" font-weight="600" fill="#1f2328">M1 Secrets · PR 1–2</text>
<text class="nsub" x="930" y="365" font-size="9.5" fill="#59636e" font-family="ui-monospace, SFMono-Regular, &quot;SF Mono&quot;, Menlo, Consolas, monospace">flagship</text>
<g class="bdg bdg-added"><rect x="1204.45" y="312" width="40.55" height="16" rx="8" fill="#b9f0c4" stroke="rgba(31,136,61,.55)" stroke-width="1"/><text x="1224.73" y="323" text-anchor="middle" font-size="8.5" font-weight="700" letter-spacing=".06em" fill="#116329">NEW</text></g></g></g>
<g><g><rect class="lpill" x="309.22" y="172.5" width="225.57" height="15" rx="7.5" fill="#ffffff" stroke="#d8dee4" stroke-width="1"/><text class="ltext ltext-added" x="422" y="183.5" text-anchor="middle" font-size="9.5" font-weight="600" fill="#116329">every claim carries file:line + proving command</text></g>
<g><rect class="lpill" x="572.76" y="286.5" width="142.48" height="15" rx="7.5" fill="#ffffff" stroke="#d8dee4" stroke-width="1"/><text class="ltext ltext-added" x="644" y="297.5" text-anchor="middle" font-size="9.5" font-weight="600" fill="#116329">athlete-facing &amp; security first</text></g></g>
</svg>