<svg xmlns="http://www.w3.org/2000/svg" viewBox="0 0 666 251" width="666" height="251" role="img" aria-label="Data flow — one marked chat turn" font-family="-apple-system, BlinkMacSystemFont, &quot;Segoe UI&quot;, &quot;Noto Sans&quot;, Helvetica, Arial, sans-serif">
<title>Data flow — one marked chat turn</title>
<desc>What a marked turn looks like in production: the prefix block, the cached reply, the Sentry span.</desc>
<defs><pattern id="dots" width="18" height="18" patternUnits="userSpaceOnUse"><circle cx="1.5" cy="1.5" r="1" fill="rgba(110,118,129,.22)"/></pattern><marker id="mk-added" viewBox="0 0 10 10" refX="8" refY="5" markerWidth="6.5" markerHeight="6.5" orient="auto-start-reverse"><path d="M0,0 L10,5 L0,10 z" fill="#3fb950"/></marker><marker id="mko-added" viewBox="0 0 10 10" refX="10" refY="5" markerWidth="6.5" markerHeight="6.5" orient="auto-start-reverse"><path d="M2,1 L10,5 L2,9" fill="none" stroke="#3fb950" stroke-width="1.6" stroke-linecap="round" stroke-linejoin="round"/></marker><marker id="mk-modified" viewBox="0 0 10 10" refX="8" refY="5" markerWidth="6.5" markerHeight="6.5" orient="auto-start-reverse"><path d="M0,0 L10,5 L0,10 z" fill="#d29922"/></marker><marker id="mko-modified" viewBox="0 0 10 10" refX="10" refY="5" markerWidth="6.5" markerHeight="6.5" orient="auto-start-reverse"><path d="M2,1 L10,5 L2,9" fill="none" stroke="#d29922" stroke-width="1.6" stroke-linecap="round" stroke-linejoin="round"/></marker><marker id="mk-removed" viewBox="0 0 10 10" refX="8" refY="5" markerWidth="6.5" markerHeight="6.5" orient="auto-start-reverse"><path d="M0,0 L10,5 L0,10 z" fill="#f85149"/></marker><marker id="mko-removed" viewBox="0 0 10 10" refX="10" refY="5" markerWidth="6.5" markerHeight="6.5" orient="auto-start-reverse"><path d="M2,1 L10,5 L2,9" fill="none" stroke="#f85149" stroke-width="1.6" stroke-linecap="round" stroke-linejoin="round"/></marker><marker id="mk-neutral" viewBox="0 0 10 10" refX="8" refY="5" markerWidth="6.5" markerHeight="6.5" orient="auto-start-reverse"><path d="M0,0 L10,5 L0,10 z" fill="#6e7681"/></marker><marker id="mko-neutral" viewBox="0 0 10 10" refX="10" refY="5" markerWidth="6.5" markerHeight="6.5" orient="auto-start-reverse"><path d="M2,1 L10,5 L2,9" fill="none" stroke="#6e7681" stroke-width="1.6" stroke-linecap="round" stroke-linejoin="round"/></marker></defs>
<rect x="0" y="0" width="666" height="251" rx="12" fill="#0d1117"/>
<rect x="0" y="0" width="666" height="251" rx="12" fill="url(#dots)"/>
<g transform="translate(12,10)"><g><rect class="lanebox" x="4" y="6" width="174" height="219" rx="12" fill="rgba(110,118,129,.07)"/>
<rect class="lanebox" x="234" y="6" width="174" height="219" rx="12" fill="rgba(110,118,129,.07)"/>
<rect class="lanebox" x="464" y="6" width="174" height="219" rx="12" fill="rgba(110,118,129,.07)"/></g>
<g><line class="lifeline" x1="91" y1="72" x2="91" y2="213" stroke="#30363d" stroke-width="1" stroke-dasharray="3 4"/>
<line class="lifeline" x1="321" y1="72" x2="321" y2="213" stroke="#30363d" stroke-width="1" stroke-dasharray="3 4"/>
<rect class="actbar" x="315" y="113" width="12" height="38" rx="4" fill="rgba(46,160,67,.15)" stroke="rgba(63,185,80,.4)"/>
<line class="lifeline" x1="551" y1="72" x2="551" y2="213" stroke="#30363d" stroke-width="1" stroke-dasharray="3 4"/></g>
<g><g class="cardsh context" filter="drop-shadow(0 1px 2px rgba(0,0,0,.28))" opacity="0.82"><rect class="card" x="16" y="18" width="150" height="52" rx="10" fill="#1c2128" stroke-width="1" stroke="#3d444d"/>
<rect class="chip" x="30" y="31" width="26" height="26" rx="7" fill="rgba(110,118,129,.18)"/><g><rect class="glyph-stroke" x="36" y="38" width="14" height="12" rx="2" stroke="#9198a1" stroke-width="1.4" fill="none"/>
<path class="glyph-stroke" d="M36,42 h14" stroke="#9198a1" stroke-width="1.4" fill="none"/></g>
<text class="ntitle" x="66" y="49" font-size="13" font-weight="600" fill="#e6edf3">chat</text></g>
<g class="cardsh context" filter="drop-shadow(0 1px 2px rgba(0,0,0,.28))" opacity="0.82"><rect class="card" x="246" y="18" width="150" height="52" rx="10" fill="#1c2128" stroke-width="1" stroke="#3d444d"/>
<rect class="chip" x="260" y="31" width="26" height="26" rx="7" fill="rgba(110,118,129,.18)"/><g><rect class="glyph-stroke" x="265" y="38" width="16" height="12" rx="2" stroke="#9198a1" stroke-width="1.4" fill="none"/>
<path class="glyph-stroke" d="M265,40 l8,6 8,-6" stroke="#9198a1" stroke-width="1.4" fill="none"/></g>
<text class="ntitle" x="296" y="49" font-size="13" font-weight="600" fill="#e6edf3">OpenRouter</text></g>
<g class="cardsh context" filter="drop-shadow(0 1px 2px rgba(0,0,0,.28))" opacity="0.82"><rect class="card" x="476" y="18" width="150" height="52" rx="10" fill="#1c2128" stroke-width="1" stroke="#3d444d"/>
<rect class="chip" x="490" y="31" width="26" height="26" rx="7" fill="rgba(110,118,129,.18)"/><g><rect class="glyph-stroke" x="496.5" y="37.5" width="13" height="13" rx="3" stroke="#9198a1" stroke-width="1.4" fill="none"/>
<circle class="glyph" fill="#9198a1" cx="503" cy="44" r="2"/></g>
<text class="ntitle" x="526" y="49" font-size="13" font-weight="600" fill="#e6edf3">Sentry</text></g></g>
<g><path class="msg edge-neutral" d="M91,113 L310,113" marker-end="url(#mk-neutral)" fill="none" stroke="#6e7681" stroke-width="1.5"/>
<circle r="2.6" fill="#6e7681" opacity="0"><animateMotion dur="4.2s" repeatCount="indefinite" keyPoints="0;0;1;1" keyTimes="0;0;0.3333;1" calcMode="linear" path="M91,113 L310,113"/><animate attributeName="opacity" dur="4.2s" repeatCount="indefinite" values="0;0;1;1;0;0" keyTimes="0;0;0.0267;0.3067;0.3333;1"/></circle>
<path class="msg edge-neutral msg-return" d="M315,151 L96,151" marker-end="url(#mk-neutral)" fill="none" stroke="#6e7681" stroke-width="1.5" stroke-dasharray="4 3" opacity="0.8"/>
<circle r="2.6" fill="#6e7681" opacity="0"><animateMotion dur="4.2s" repeatCount="indefinite" keyPoints="0;0;1;1" keyTimes="0;0.3333;0.6667;1" calcMode="linear" path="M315,151 L96,151"/><animate attributeName="opacity" dur="4.2s" repeatCount="indefinite" values="0;0;1;1;0;0" keyTimes="0;0.3333;0.36;0.64;0.6667;1"/></circle>
<path class="msg edge-neutral" d="M321,189 L546,189" marker-end="url(#mko-neutral)" fill="none" stroke="#6e7681" stroke-width="1.5"/>
<circle r="2.6" fill="#6e7681" opacity="0"><animateMotion dur="4.2s" repeatCount="indefinite" keyPoints="0;0;1;1" keyTimes="0;0.6667;1;1" calcMode="linear" path="M321,189 L546,189"/><animate attributeName="opacity" dur="4.2s" repeatCount="indefinite" values="0;0;1;1;0;0" keyTimes="0;0.6667;0.6933;0.9733;1;1"/></circle></g>
<g><g><rect class="lpill" x="99.66" y="105.5" width="201.69" height="15" rx="7.5" fill="#0d1117" stroke="#21262d" stroke-width="1"/><text class="ltext" x="200.5" y="116.5" text-anchor="middle" font-size="9.5" font-weight="600" fill="#9198a1">system block · cache_control: ephemeral</text></g>
<g><rect class="lpill" x="122.84" y="143.5" width="165.33" height="15" rx="7.5" fill="#0d1117" stroke="#21262d" stroke-width="1"/><text class="ltext" x="205.5" y="154.5" text-anchor="middle" font-size="9.5" font-weight="600" fill="#9198a1">reply · 13,070 tokens from cache</text></g>
<g><rect class="lpill" x="302.23" y="181.5" width="262.55" height="15" rx="7.5" fill="#0d1117" stroke="#21262d" stroke-width="1"/><text class="ltext" x="433.5" y="192.5" text-anchor="middle" font-size="9.5" font-weight="600" fill="#9198a1">gen_ai.usage.input_tokens.cached + llm.cache_marker</text></g></g></g>
</svg>