<svg xmlns="http://www.w3.org/2000/svg" viewBox="0 0 436 522" width="436" height="522" role="img" aria-label="The matcher" font-family="-apple-system, BlinkMacSystemFont, &quot;Segoe UI&quot;, &quot;Noto Sans&quot;, Helvetica, Arial, sans-serif">
<title>The matcher</title>
<desc>findPhaseByName and its edges into both callers.</desc>
<defs><pattern id="dots" width="18" height="18" patternUnits="userSpaceOnUse"><circle cx="1.5" cy="1.5" r="1" fill="rgba(140,149,159,.5)"/></pattern><marker id="mk-added" viewBox="0 0 10 10" refX="8" refY="5" markerWidth="6.5" markerHeight="6.5" orient="auto-start-reverse"><path d="M0,0 L10,5 L0,10 z" fill="#1f883d"/></marker><marker id="mko-added" viewBox="0 0 10 10" refX="10" refY="5" markerWidth="6.5" markerHeight="6.5" orient="auto-start-reverse"><path d="M2,1 L10,5 L2,9" fill="none" stroke="#1f883d" stroke-width="1.6" stroke-linecap="round" stroke-linejoin="round"/></marker><marker id="mk-modified" viewBox="0 0 10 10" refX="8" refY="5" markerWidth="6.5" markerHeight="6.5" orient="auto-start-reverse"><path d="M0,0 L10,5 L0,10 z" fill="#bf8700"/></marker><marker id="mko-modified" viewBox="0 0 10 10" refX="10" refY="5" markerWidth="6.5" markerHeight="6.5" orient="auto-start-reverse"><path d="M2,1 L10,5 L2,9" fill="none" stroke="#bf8700" stroke-width="1.6" stroke-linecap="round" stroke-linejoin="round"/></marker><marker id="mk-removed" viewBox="0 0 10 10" refX="8" refY="5" markerWidth="6.5" markerHeight="6.5" orient="auto-start-reverse"><path d="M0,0 L10,5 L0,10 z" fill="#cf222e"/></marker><marker id="mko-removed" viewBox="0 0 10 10" refX="10" refY="5" markerWidth="6.5" markerHeight="6.5" orient="auto-start-reverse"><path d="M2,1 L10,5 L2,9" fill="none" stroke="#cf222e" stroke-width="1.6" stroke-linecap="round" stroke-linejoin="round"/></marker><marker id="mk-neutral" viewBox="0 0 10 10" refX="8" refY="5" markerWidth="6.5" markerHeight="6.5" orient="auto-start-reverse"><path d="M0,0 L10,5 L0,10 z" fill="#8c959f"/></marker><marker id="mko-neutral" viewBox="0 0 10 10" refX="10" refY="5" markerWidth="6.5" markerHeight="6.5" orient="auto-start-reverse"><path d="M2,1 L10,5 L2,9" fill="none" stroke="#8c959f" stroke-width="1.6" stroke-linecap="round" stroke-linejoin="round"/></marker></defs>
<rect x="0" y="0" width="436" height="522" rx="12" fill="#f4f5f7"/>
<rect x="0" y="0" width="436" height="522" rx="12" fill="url(#dots)"/>
<g><rect class="lanebox" x="16" y="44" width="404" height="462" rx="12" fill="rgba(255,255,255,.55)"/>
<text class="lanelabel" x="32" y="68" font-size="10" font-weight="700" letter-spacing=".12em" fill="#59636e">DECISION LOGIC · DECIDE/COACHWORKOUTFILES.TS</text></g>
<g><path class="edge edge-neutral context" d="M166,154 L166,206" marker-end="url(#mk-neutral)" fill="none" stroke="#8c959f" stroke-width="1.5" opacity="0.82"/>
<path class="edge edge-neutral context" d="M270,154 L270,206" marker-end="url(#mk-neutral)" fill="none" stroke="#8c959f" stroke-width="1.5" opacity="0.82"/>
<path class="glow" stroke="#1f883d" d="M210,268 L210,320" fill="none" stroke-width="7" opacity="0.14"/>
<path class="edge edge-added hero" d="M210,268 L210,320" marker-end="url(#mk-added)" fill="none" stroke="#1f883d" stroke-width="2.25"/>
<path class="glow" stroke="#1f883d" d="M218,382 L218,434" fill="none" stroke-width="7" opacity="0.14"/>
<path class="edge edge-added hero" d="M218,382 L218,434" marker-end="url(#mk-added)" fill="none" stroke="#1f883d" stroke-width="2.25"/>
<path class="edge edge-added" d="M226,320 L226,268" marker-end="url(#mk-added)" fill="none" stroke="#1f883d" stroke-width="1.5"/></g>
<g><g class="cardsh context" filter="drop-shadow(0 1px 2px rgba(31,35,40,.14))" opacity="0.82"><rect class="card" x="32" y="92" width="180" height="62" rx="10" fill="#ffffff" stroke-width="1" stroke="#d1d9e0"/>
<rect class="chip" x="46" y="110" width="26" height="26" rx="7" fill="#f1f3f5"/><g><text class="glyph" x="59" y="127.5" text-anchor="middle" fill="#59636e" font-size="14" font-style="italic" font-family="Georgia,serif">ƒ</text></g>
<text class="ntitle" x="82" y="119" font-size="11.5" font-weight="600" fill="#1f2328">applySessionPlan</text>
<text class="nsub" x="82" y="137" font-size="9.5" fill="#59636e" font-family="ui-monospace, SFMono-Regular, &quot;SF Mono&quot;, Menlo, Consolas, monospace">coachWorkoutFiles.ts</text></g>
<g class="cardsh context" filter="drop-shadow(0 1px 2px rgba(31,35,40,.14))" opacity="0.82"><rect class="card" x="224" y="92" width="180" height="62" rx="10" fill="#ffffff" stroke-width="1" stroke="#d1d9e0"/>
<rect class="chip" x="238" y="110" width="26" height="26" rx="7" fill="#f1f3f5"/><g><text class="glyph" x="251" y="127.5" text-anchor="middle" fill="#59636e" font-size="14" font-style="italic" font-family="Georgia,serif">ƒ</text></g>
<text class="ntitle" x="274" y="119" font-size="11.5" font-weight="600" fill="#1f2328">applyTemplateEdit</text>
<text class="nsub" x="274" y="137" font-size="9.5" fill="#59636e" font-family="ui-monospace, SFMono-Regular, &quot;SF Mono&quot;, Menlo, Consolas, monospace">coachWorkoutFiles.ts</text></g>
<g class="cardsh" filter="drop-shadow(0 1px 2px rgba(31,35,40,.14))"><rect class="card card-modified" x="32" y="206" width="372" height="62" rx="10" fill="#ffffff" stroke-width="1" stroke="#bf8700" stroke-opacity="0.5"/>
<rect class="chip" x="46" y="224" width="26" height="26" rx="7" fill="#f1f3f5"/><g><text class="glyph" x="59" y="241.5" text-anchor="middle" fill="#59636e" font-size="14" font-style="italic" font-family="Georgia,serif">ƒ</text></g>
<text class="ntitle" x="82" y="233" font-size="13" font-weight="600" fill="#1f2328">resolvePhaseNames</text>
<text class="nsub" x="82" y="251" font-size="9.5" fill="#59636e" font-family="ui-monospace, SFMono-Regular, &quot;SF Mono&quot;, Menlo, Consolas, monospace">coachWorkoutFiles.ts</text>
<g class="bdg bdg-neutral"><rect x="277.01" y="198" width="47.37" height="16" rx="8" fill="#f1f3f5" stroke="#d1d9e0" stroke-width="1"/><text x="300.7" y="209" text-anchor="middle" font-size="8.5" font-weight="700" letter-spacing=".06em" fill="#59636e">+2 / -1</text></g>
<g class="bdg bdg-modified"><rect x="330.38" y="198" width="66.62" height="16" rx="8" fill="#fae17d" stroke="rgba(154,103,0,.55)" stroke-width="1"/><text x="363.69" y="209" text-anchor="middle" font-size="8.5" font-weight="700" letter-spacing=".06em" fill="#7d4e00">CHANGED</text></g></g>
<g class="cardsh" filter="drop-shadow(0 1px 2px rgba(31,35,40,.14))"><rect class="card card-added" x="32" y="320" width="372" height="62" rx="10" fill="#ffffff" stroke-width="1" stroke="#1f883d" stroke-opacity="0.55"/>
<rect class="chip" x="46" y="338" width="26" height="26" rx="7" fill="#f1f3f5"/><g><text class="glyph" x="59" y="355.5" text-anchor="middle" fill="#59636e" font-size="14" font-style="italic" font-family="Georgia,serif">ƒ</text></g>
<text class="ntitle" x="82" y="347" font-size="13" font-weight="600" fill="#1f2328">findPhaseByName</text>
<text class="nsub" x="82" y="365" font-size="9.5" fill="#59636e" font-family="ui-monospace, SFMono-Regular, &quot;SF Mono&quot;, Menlo, Consolas, monospace">coachWorkoutFiles.ts</text>
<g class="bdg bdg-added"><rect x="356.45" y="312" width="40.55" height="16" rx="8" fill="#b9f0c4" stroke="rgba(31,136,61,.55)" stroke-width="1"/><text x="376.73" y="323" text-anchor="middle" font-size="8.5" font-weight="700" letter-spacing=".06em" fill="#116329">NEW</text></g></g>
<g class="cardsh context" filter="drop-shadow(0 1px 2px rgba(31,35,40,.14))" opacity="0.82"><rect class="card" x="32" y="434" width="372" height="52" rx="10" fill="#ffffff" stroke-width="1" stroke="#d1d9e0"/>
<rect class="chip" x="46" y="447" width="26" height="26" rx="7" fill="#f1f3f5"/><g><circle class="glyph" fill="#59636e" cx="54" cy="460" r="1.8"/>
<circle class="glyph" fill="#59636e" cx="59" cy="460" r="1.8"/>
<circle class="glyph" fill="#59636e" cx="64" cy="460" r="1.8"/></g>
<text class="ntitle" x="82" y="465" font-size="13" font-weight="600" fill="#1f2328">&quot;Core &amp; Cool-down&quot;</text></g></g>
<g><g><rect class="lpill" x="125.26" y="172.5" width="81.48" height="15" rx="7.5" fill="#ffffff" stroke="#d8dee4" stroke-width="1"/><text class="ltext" x="166" y="183.5" text-anchor="middle" font-size="9.5" font-weight="600" fill="#59636e">resolve names</text></g>
<g><rect class="lpill" x="229.26" y="172.5" width="81.48" height="15" rx="7.5" fill="#ffffff" stroke="#d8dee4" stroke-width="1"/><text class="ltext" x="270" y="183.5" text-anchor="middle" font-size="9.5" font-weight="600" fill="#59636e">resolve names</text></g>
<g><rect class="lpill" x="179.12" y="286.5" width="61.77" height="15" rx="7.5" fill="#ffffff" stroke="#d8dee4" stroke-width="1"/><text class="ltext ltext-added" x="210" y="297.5" text-anchor="middle" font-size="9.5" font-weight="600" fill="#116329">find &quot;core&quot;</text></g>
<g><rect class="lpill" x="156.56" y="400.5" width="122.88" height="15" rx="7.5" fill="#ffffff" stroke="#d8dee4" stroke-width="1"/><text class="ltext ltext-added" x="218" y="411.5" text-anchor="middle" font-size="9.5" font-weight="600" fill="#116329">whole-word match: core</text></g>
<g><rect class="lpill" x="164.41" y="269.5" width="123.18" height="15" rx="7.5" fill="#ffffff" stroke="#d8dee4" stroke-width="1"/><text class="ltext ltext-added" x="226" y="280.5" text-anchor="middle" font-size="9.5" font-weight="600" fill="#116329">phase -&gt; exercise nums</text></g></g>
</svg>