<svg xmlns="http://www.w3.org/2000/svg" viewBox="0 0 860 418" width="860" height="418" role="img" aria-label="Server finalize" font-family="-apple-system, BlinkMacSystemFont, &quot;Segoe UI&quot;, &quot;Noto Sans&quot;, Helvetica, Arial, sans-serif">
<title>Server finalize</title>
<desc>The applier now delegates to the same pure check it used to inline.</desc>
<defs><pattern id="dots" width="18" height="18" patternUnits="userSpaceOnUse"><circle cx="1.5" cy="1.5" r="1" fill="rgba(110,118,129,.22)"/></pattern><marker id="mk-added" viewBox="0 0 10 10" refX="8" refY="5" markerWidth="6.5" markerHeight="6.5" orient="auto-start-reverse"><path d="M0,0 L10,5 L0,10 z" fill="#3fb950"/></marker><marker id="mko-added" viewBox="0 0 10 10" refX="10" refY="5" markerWidth="6.5" markerHeight="6.5" orient="auto-start-reverse"><path d="M2,1 L10,5 L2,9" fill="none" stroke="#3fb950" stroke-width="1.6" stroke-linecap="round" stroke-linejoin="round"/></marker><marker id="mk-modified" viewBox="0 0 10 10" refX="8" refY="5" markerWidth="6.5" markerHeight="6.5" orient="auto-start-reverse"><path d="M0,0 L10,5 L0,10 z" fill="#d29922"/></marker><marker id="mko-modified" viewBox="0 0 10 10" refX="10" refY="5" markerWidth="6.5" markerHeight="6.5" orient="auto-start-reverse"><path d="M2,1 L10,5 L2,9" fill="none" stroke="#d29922" stroke-width="1.6" stroke-linecap="round" stroke-linejoin="round"/></marker><marker id="mk-removed" viewBox="0 0 10 10" refX="8" refY="5" markerWidth="6.5" markerHeight="6.5" orient="auto-start-reverse"><path d="M0,0 L10,5 L0,10 z" fill="#f85149"/></marker><marker id="mko-removed" viewBox="0 0 10 10" refX="10" refY="5" markerWidth="6.5" markerHeight="6.5" orient="auto-start-reverse"><path d="M2,1 L10,5 L2,9" fill="none" stroke="#f85149" stroke-width="1.6" stroke-linecap="round" stroke-linejoin="round"/></marker><marker id="mk-neutral" viewBox="0 0 10 10" refX="8" refY="5" markerWidth="6.5" markerHeight="6.5" orient="auto-start-reverse"><path d="M0,0 L10,5 L0,10 z" fill="#6e7681"/></marker><marker id="mko-neutral" viewBox="0 0 10 10" refX="10" refY="5" markerWidth="6.5" markerHeight="6.5" orient="auto-start-reverse"><path d="M2,1 L10,5 L2,9" fill="none" stroke="#6e7681" stroke-width="1.6" stroke-linecap="round" stroke-linejoin="round"/></marker></defs>
<rect x="0" y="0" width="860" height="418" rx="12" fill="#0d1117"/>
<rect x="0" y="0" width="860" height="418" rx="12" fill="url(#dots)"/>
<g><rect class="lanebox" x="16" y="44" width="404" height="358" rx="12" fill="rgba(110,118,129,.07)"/>
<text class="lanelabel" x="32" y="68" font-size="10" font-weight="700" letter-spacing=".12em" fill="#9198a1">REPLY VALIDATION · REQUESTCOACHREPLY TURN PIPELI…</text>
<rect class="lanebox" x="440" y="44" width="404" height="358" rx="12" fill="rgba(110,118,129,.07)"/>
<text class="lanelabel" x="456" y="68" font-size="10" font-weight="700" letter-spacing=".12em" fill="#9198a1">SERVER FINALIZE · ROUTINE COMPILER</text></g>
<g><path class="edge edge-modified" d="M404,131 L417,131 C424.18,131 430,136.82 430,144 L430,216 C430,223.18 435.82,229 443,229 L456,229" marker-end="url(#mk-modified)" fill="none" stroke="#d29922" stroke-width="1.5"/>
<path class="edge edge-added" d="M456,245 L451,245 C448.24,245 446,247.24 446,250 L446,330 C446,341.6 436.6,351 425,351 L404,351" marker-end="url(#mk-added)" fill="none" stroke="#3fb950" stroke-width="1.5"/>
<path class="edge edge-added" d="M404,115 L409,115 C411.76,115 414,117.24 414,120 L414,147.5 C414,165.45 428.55,180 446.5,180 L725,180 C732.18,180 738,185.82 738,193 L738,206" marker-end="url(#mk-added)" fill="none" stroke="#3fb950" stroke-width="1.5"/></g>
<g><g class="cardsh" filter="drop-shadow(0 1px 2px rgba(0,0,0,.28))"><rect class="card card-modified" x="32" y="92" width="372" height="62" rx="10" fill="#1c2128" stroke-width="1" stroke="#d29922" stroke-opacity="0.5"/>
<rect class="chip" x="46" y="110" width="26" height="26" rx="7" fill="rgba(110,118,129,.18)"/><g><text class="glyph" x="59" y="127.5" text-anchor="middle" fill="#9198a1" font-size="14" font-style="italic" font-family="Georgia,serif">ƒ</text></g>
<text class="ntitle" x="82" y="119" font-size="13" font-weight="600" fill="#e6edf3">requestCoachReply</text>
<text class="nsub" x="82" y="137" font-size="9.5" fill="#9198a1" font-family="ui-monospace, SFMono-Regular, &quot;SF Mono&quot;, Menlo, Consolas, monospace">ui/api/coach-chat/_lib/requestCoachReply.ts</text>
<g class="bdg bdg-neutral"><rect x="271.49" y="84" width="52.89" height="16" rx="8" fill="rgba(110,118,129,.18)" stroke="#3d444d" stroke-width="1"/><text x="297.94" y="95" text-anchor="middle" font-size="8.5" font-weight="700" letter-spacing=".06em" fill="#9198a1">+21 / -0</text></g>
<g class="bdg bdg-modified"><rect x="330.38" y="84" width="66.62" height="16" rx="8" fill="rgba(187,128,9,.15)" stroke="rgba(210,153,34,.4)" stroke-width="1"/><text x="363.69" y="95" text-anchor="middle" font-size="8.5" font-weight="700" letter-spacing=".06em" fill="#d29922">CHANGED</text></g></g>
<g class="cardsh" filter="drop-shadow(0 1px 2px rgba(0,0,0,.28))"><rect class="card card-added" x="32" y="320" width="372" height="62" rx="10" fill="#1c2128" stroke-width="1" stroke="#3fb950" stroke-opacity="0.55"/>
<rect class="chip" x="46" y="338" width="26" height="26" rx="7" fill="rgba(110,118,129,.18)"/><g><text class="glyph" x="59" y="355.5" text-anchor="middle" fill="#9198a1" font-size="14" font-style="italic" font-family="Georgia,serif">ƒ</text></g>
<text class="ntitle" x="82" y="347" font-size="13" font-weight="600" fill="#e6edf3">workoutCreateProgressionViolations</text>
<text class="nsub" x="82" y="365" font-size="9.5" fill="#9198a1" font-family="ui-monospace, SFMono-Regular, &quot;SF Mono&quot;, Menlo, Consolas, monospace">coachWorkoutFiles.ts — pure check</text>
<g class="bdg bdg-added"><rect x="356.45" y="312" width="40.55" height="16" rx="8" fill="rgba(46,160,67,.15)" stroke="rgba(63,185,80,.4)" stroke-width="1"/><text x="376.73" y="323" text-anchor="middle" font-size="8.5" font-weight="700" letter-spacing=".06em" fill="#3fb950">NEW</text></g></g>
<g class="cardsh" filter="drop-shadow(0 1px 2px rgba(0,0,0,.28))"><rect class="card card-modified" x="456" y="206" width="180" height="62" rx="10" fill="#1c2128" stroke-width="1" stroke="#d29922" stroke-opacity="0.5"/>
<rect class="chip" x="470" y="224" width="26" height="26" rx="7" fill="rgba(110,118,129,.18)"/><g><text class="glyph" x="483" y="241.5" text-anchor="middle" fill="#9198a1" font-size="14" font-style="italic" font-family="Georgia,serif">ƒ</text></g>
<text class="ntitle" x="506" y="233" font-size="11.5" font-weight="600" fill="#e6edf3">applyWorkoutCreate</text>
<text class="nsub" x="506" y="251" font-size="9.5" fill="#9198a1" font-family="ui-monospace, SFMono-Regular, &quot;SF Mono&quot;, Menlo, Consolas, monospace">coachWorkoutFiles.ts</text>
<g class="bdg bdg-neutral"><rect x="499.74" y="198" width="56.64" height="16" rx="8" fill="rgba(110,118,129,.18)" stroke="#3d444d" stroke-width="1"/><text x="528.06" y="209" text-anchor="middle" font-size="8.5" font-weight="700" letter-spacing=".06em" fill="#9198a1">-33 lines</text></g>
<g class="bdg bdg-modified"><rect x="562.38" y="198" width="66.62" height="16" rx="8" fill="rgba(187,128,9,.15)" stroke="rgba(210,153,34,.4)" stroke-width="1"/><text x="595.69" y="209" text-anchor="middle" font-size="8.5" font-weight="700" letter-spacing=".06em" fill="#d29922">CHANGED</text></g></g>
<g class="cardsh context" filter="drop-shadow(0 1px 2px rgba(0,0,0,.28))" opacity="0.82"><rect class="card" x="648" y="206" width="180" height="62" rx="10" fill="#1c2128" stroke-width="1" stroke="#3d444d"/>
<rect class="chip" x="662" y="224" width="26" height="26" rx="7" fill="rgba(110,118,129,.18)"/><g><text class="glyph" x="675" y="241.5" text-anchor="middle" fill="#9198a1" font-size="14" font-style="italic" font-family="Georgia,serif">ƒ</text></g>
<text class="ntitle" x="698" y="233" font-size="10.5" font-weight="600" fill="#e6edf3">captureStillUnresolve…</text>
<text class="nsub" x="698" y="251" font-size="9.5" fill="#9198a1" font-family="ui-monospace, SFMono-Regular, &quot;SF Mono&quot;, Menlo, Consolas, monospace">Sentry</text></g></g>
<g><g><rect class="lpill" x="388.99" y="172.5" width="82.03" height="15" rx="7.5" fill="#0d1117" stroke="#21262d" stroke-width="1"/><text class="ltext ltext-modified" x="430" y="183.5" text-anchor="middle" font-size="9.5" font-weight="600" fill="#d29922">commit routine</text></g>
<g><rect class="lpill" x="380.92" y="282.5" width="130.16" height="15" rx="7.5" fill="#0d1117" stroke="#21262d" stroke-width="1"/><text class="ltext ltext-added" x="446" y="293.5" text-anchor="middle" font-size="9.5" font-weight="600" fill="#3fb950">shared check, throws first</text></g>
<g><rect class="lpill" x="530.24" y="172.5" width="111.02" height="15" rx="7.5" fill="#0d1117" stroke="#21262d" stroke-width="1"/><text class="ltext ltext-added" x="585.75" y="183.5" text-anchor="middle" font-size="9.5" font-weight="600" fill="#3fb950">still violating → Sentry</text></g></g>
</svg>