<svg xmlns="http://www.w3.org/2000/svg" viewBox="0 0 2132 740" width="2132" height="740" role="img" aria-label="Architecture — blast radius" font-family="-apple-system, BlinkMacSystemFont, &quot;Segoe UI&quot;, &quot;Noto Sans&quot;, Helvetica, Arial, sans-serif">
<title>Architecture — blast radius</title>
<desc>Everything this change touches, across the turn pipeline.</desc>
<defs><pattern id="dots" width="18" height="18" patternUnits="userSpaceOnUse"><circle cx="1.5" cy="1.5" r="1" fill="rgba(140,149,159,.5)"/></pattern><marker id="mk-added" viewBox="0 0 10 10" refX="8" refY="5" markerWidth="6.5" markerHeight="6.5" orient="auto-start-reverse"><path d="M0,0 L10,5 L0,10 z" fill="#1f883d"/></marker><marker id="mko-added" viewBox="0 0 10 10" refX="10" refY="5" markerWidth="6.5" markerHeight="6.5" orient="auto-start-reverse"><path d="M2,1 L10,5 L2,9" fill="none" stroke="#1f883d" stroke-width="1.6" stroke-linecap="round" stroke-linejoin="round"/></marker><marker id="mk-modified" viewBox="0 0 10 10" refX="8" refY="5" markerWidth="6.5" markerHeight="6.5" orient="auto-start-reverse"><path d="M0,0 L10,5 L0,10 z" fill="#bf8700"/></marker><marker id="mko-modified" viewBox="0 0 10 10" refX="10" refY="5" markerWidth="6.5" markerHeight="6.5" orient="auto-start-reverse"><path d="M2,1 L10,5 L2,9" fill="none" stroke="#bf8700" stroke-width="1.6" stroke-linecap="round" stroke-linejoin="round"/></marker><marker id="mk-removed" viewBox="0 0 10 10" refX="8" refY="5" markerWidth="6.5" markerHeight="6.5" orient="auto-start-reverse"><path d="M0,0 L10,5 L0,10 z" fill="#cf222e"/></marker><marker id="mko-removed" viewBox="0 0 10 10" refX="10" refY="5" markerWidth="6.5" markerHeight="6.5" orient="auto-start-reverse"><path d="M2,1 L10,5 L2,9" fill="none" stroke="#cf222e" stroke-width="1.6" stroke-linecap="round" stroke-linejoin="round"/></marker><marker id="mk-neutral" viewBox="0 0 10 10" refX="8" refY="5" markerWidth="6.5" markerHeight="6.5" orient="auto-start-reverse"><path d="M0,0 L10,5 L0,10 z" fill="#8c959f"/></marker><marker id="mko-neutral" viewBox="0 0 10 10" refX="10" refY="5" markerWidth="6.5" markerHeight="6.5" orient="auto-start-reverse"><path d="M2,1 L10,5 L2,9" fill="none" stroke="#8c959f" stroke-width="1.6" stroke-linecap="round" stroke-linejoin="round"/></marker></defs>
<rect x="0" y="0" width="2132" height="740" rx="12" fill="#f4f5f7"/>
<rect x="0" y="0" width="2132" height="740" rx="12" fill="url(#dots)"/>
<g><rect class="lanebox" x="16" y="44" width="404" height="680" rx="12" fill="rgba(255,255,255,.55)"/>
<text class="lanelabel" x="32" y="68" font-size="10" font-weight="700" letter-spacing=".12em" fill="#59636e">COACH CHAT TURN · UI/API/COACH-CHAT</text>
<rect class="lanebox" x="440" y="44" width="404" height="680" rx="12" fill="rgba(255,255,255,.55)"/>
<text class="lanelabel" x="456" y="68" font-size="10" font-weight="700" letter-spacing=".12em" fill="#59636e">REPLY VALIDATION · TURNREPLYVALIDATION.TS</text>
<rect class="lanebox" x="864" y="44" width="404" height="680" rx="12" fill="rgba(255,255,255,.55)"/>
<text class="lanelabel" x="880" y="68" font-size="10" font-weight="700" letter-spacing=".12em" fill="#59636e">REPLY PIPELINE · REQUESTCOACHREPLY.TS</text>
<rect class="lanebox" x="1288" y="44" width="404" height="680" rx="12" fill="rgba(255,255,255,.55)"/>
<text class="lanelabel" x="1304" y="68" font-size="10" font-weight="700" letter-spacing=".12em" fill="#59636e">TURN WRITES · BUILDTURNWRITES.TS</text>
<rect class="lanebox" x="1712" y="44" width="404" height="680" rx="12" fill="rgba(255,255,255,.55)"/>
<text class="lanelabel" x="1728" y="68" font-size="10" font-weight="700" letter-spacing=".12em" fill="#59636e">OBSERVABILITY · SENTRY</text></g>
<g><path class="edge edge-neutral context" d="M218,154 L218,206" marker-end="url(#mk-neutral)" fill="none" stroke="#8c959f" stroke-width="1.5" opacity="0.82"/>
<path class="edge edge-added" d="M404,237 L417,237 C424.18,237 430,242.82 430,250 L430,333 C430,340.18 435.82,346 443,346 L456,346" marker-end="url(#mk-added)" fill="none" stroke="#1f883d" stroke-width="1.5"/>
<path class="glow" stroke="#1f883d" d="M828,346 L845,346 C854.39,346 862,353.61 862,363 L862,454 C862,458.97 866.03,463 871,463 L880,463" fill="none" stroke-width="7" opacity="0.14"/>
<path class="edge edge-added hero" d="M828,346 L845,346 C854.39,346 862,353.61 862,363 L862,454 C862,458.97 866.03,463 871,463 L880,463" marker-end="url(#mk-added)" fill="none" stroke="#1f883d" stroke-width="2.25"/>
<circle r="3" fill="#1f883d"><animateMotion dur="2.1s" repeatCount="indefinite" path="M828,346 L845,346 C854.39,346 862,353.61 862,363 L862,454 C862,458.97 866.03,463 871,463 L880,463"/></circle>
<circle r="3" fill="#1f883d"><animateMotion dur="2.1s" begin="-1.4s" repeatCount="indefinite" path="M828,346 L845,346 C854.39,346 862,353.61 862,363 L862,454 C862,458.97 866.03,463 871,463 L880,463"/></circle>
<circle r="3" fill="#1f883d"><animateMotion dur="2.1s" begin="-0.7s" repeatCount="indefinite" path="M828,346 L845,346 C854.39,346 862,353.61 862,363 L862,454 C862,458.97 866.03,463 871,463 L880,463"/></circle>
<path class="edge edge-added" d="M1066,486 L1066,538" marker-end="url(#mk-added)" fill="none" stroke="#1f883d" stroke-width="1.5"/>
<path class="edge edge-added" d="M1252,572 L1269,572 C1278.39,572 1286,579.61 1286,589 L1286,659 C1286,663.97 1290.03,668 1295,668 L1304,668" marker-end="url(#mk-added)" fill="none" stroke="#1f883d" stroke-width="1.5"/>
<path class="edge edge-added" d="M1252,556 L1261,556 C1265.97,556 1270,560.03 1270,565 L1270,586 C1270,602.57 1283.43,616 1300,616 L1673.5,616 C1689.24,616 1702,628.76 1702,644.5 L1702,660 C1702,667.18 1707.82,673 1715,673 L1728,673" marker-end="url(#mk-added)" fill="none" stroke="#1f883d" stroke-width="1.5"/>
<path class="edge edge-modified" d="M828,118 L837,118 C841.97,118 846,122.03 846,127 L846,430 C846,439.39 853.61,447 863,447 L880,447" marker-end="url(#mk-modified)" fill="none" stroke="#bf8700" stroke-width="1.5"/></g>
<g><g class="cardsh context" filter="drop-shadow(0 1px 2px rgba(31,35,40,.14))" opacity="0.82"><rect class="card" x="32" y="92" width="372" height="62" rx="10" fill="#ffffff" stroke-width="1" stroke="#d1d9e0"/>
<rect class="chip" x="46" y="110" width="26" height="26" rx="7" fill="#f1f3f5"/><g><rect class="glyph-stroke" x="52" y="117" width="14" height="12" rx="2" stroke="#59636e" stroke-width="1.4" fill="none"/>
<path class="glyph-stroke" d="M56.5,117 v12" stroke="#59636e" stroke-width="1.4" fill="none"/></g>
<text class="ntitle" x="82" y="119" font-size="13" font-weight="600" fill="#1f2328">Athlete message</text>
<text class="nsub" x="82" y="137" font-size="9.5" fill="#59636e" font-family="ui-monospace, SFMono-Regular, &quot;SF Mono&quot;, Menlo, Consolas, monospace">&quot;add a mobility session on Saturday&quot;</text></g>
<g class="cardsh context" filter="drop-shadow(0 1px 2px rgba(31,35,40,.14))" opacity="0.82"><rect class="card" x="32" y="206" width="372" height="62" rx="10" fill="#ffffff" stroke-width="1" stroke="#d1d9e0"/>
<rect class="chip" x="46" y="224" width="26" height="26" rx="7" fill="#f1f3f5"/><g><text class="glyph" x="59" y="241.5" text-anchor="middle" fill="#59636e" font-size="14" font-style="italic" font-family="Georgia,serif">ƒ</text></g>
<text class="ntitle" x="82" y="233" font-size="13" font-weight="600" fill="#1f2328">askLlm reply</text>
<text class="nsub" x="82" y="251" font-size="9.5" fill="#59636e" font-family="ui-monospace, SFMono-Regular, &quot;SF Mono&quot;, Menlo, Consolas, monospace">&quot;I've added it onto Saturday's plan&quot;</text></g>
<g class="cardsh" filter="drop-shadow(0 1px 2px rgba(31,35,40,.14))"><rect class="card card-modified" x="456" y="92" width="372" height="52" rx="10" fill="#ffffff" stroke-width="1" stroke="#bf8700" stroke-opacity="0.5"/>
<rect class="chip" x="470" y="105" width="26" height="26" rx="7" fill="#f1f3f5"/><g><text class="glyph" x="483" y="122.5" text-anchor="middle" fill="#59636e" font-size="14" font-style="italic" font-family="Georgia,serif">ƒ</text></g>
<text class="ntitle" x="506" y="123" font-size="13" font-weight="600" fill="#1f2328">findMissedSessionPlanLanguage</text>
<g class="bdg bdg-neutral"><rect x="701.01" y="84" width="47.37" height="16" rx="8" fill="#f1f3f5" stroke="#d1d9e0" stroke-width="1"/><text x="724.7" y="95" text-anchor="middle" font-size="8.5" font-weight="700" letter-spacing=".06em" fill="#59636e">+8 / -5</text></g>
<g class="bdg bdg-modified"><rect x="754.38" y="84" width="66.62" height="16" rx="8" fill="#fae17d" stroke="rgba(154,103,0,.55)" stroke-width="1"/><text x="787.69" y="95" text-anchor="middle" font-size="8.5" font-weight="700" letter-spacing=".06em" fill="#7d4e00">CHANGED</text></g></g>
<g class="cardsh" filter="drop-shadow(0 1px 2px rgba(31,35,40,.14))"><rect class="card card-added" x="456" y="320" width="372" height="52" rx="10" fill="#ffffff" stroke-width="1" stroke="#1f883d" stroke-opacity="0.55"/>
<rect class="chip" x="470" y="333" width="26" height="26" rx="7" fill="#f1f3f5"/><g><text class="glyph" x="483" y="350.5" text-anchor="middle" fill="#59636e" font-size="14" font-style="italic" font-family="Georgia,serif">ƒ</text></g>
<text class="ntitle" x="506" y="351" font-size="13" font-weight="600" fill="#1f2328">findMissedWeekUpdateLanguage</text>
<g class="bdg bdg-added"><rect x="780.45" y="312" width="40.55" height="16" rx="8" fill="#b9f0c4" stroke="rgba(31,136,61,.55)" stroke-width="1"/><text x="800.73" y="323" text-anchor="middle" font-size="8.5" font-weight="700" letter-spacing=".06em" fill="#116329">NEW</text></g></g>
<g class="cardsh" filter="drop-shadow(0 1px 2px rgba(31,35,40,.14))"><rect class="card card-modified" x="880" y="424" width="372" height="62" rx="10" fill="#ffffff" stroke-width="1" stroke="#bf8700" stroke-opacity="0.5"/>
<rect class="chip" x="894" y="442" width="26" height="26" rx="7" fill="#f1f3f5"/><g><text class="glyph" x="907" y="459.5" text-anchor="middle" fill="#59636e" font-size="14" font-style="italic" font-family="Georgia,serif">ƒ</text></g>
<text class="ntitle" x="930" y="451" font-size="13" font-weight="600" fill="#1f2328">One-shot reprompt</text>
<text class="nsub" x="930" y="469" font-size="9.5" fill="#59636e" font-family="ui-monospace, SFMono-Regular, &quot;SF Mono&quot;, Menlo, Consolas, monospace">requestCoachReply</text>
<g class="bdg bdg-neutral"><rect x="1137.57" y="416" width="34.81" height="16" rx="8" fill="#f1f3f5" stroke="#d1d9e0" stroke-width="1"/><text x="1154.97" y="427" text-anchor="middle" font-size="8.5" font-weight="700" letter-spacing=".06em" fill="#59636e">+29</text></g>
<g class="bdg bdg-modified"><rect x="1178.38" y="416" width="66.62" height="16" rx="8" fill="#fae17d" stroke="rgba(154,103,0,.55)" stroke-width="1"/><text x="1211.69" y="427" text-anchor="middle" font-size="8.5" font-weight="700" letter-spacing=".06em" fill="#7d4e00">CHANGED</text></g></g>
<g class="cardsh" filter="drop-shadow(0 1px 2px rgba(31,35,40,.14))"><rect class="card card-added" x="880" y="538" width="372" height="52" rx="10" fill="#ffffff" stroke-width="1" stroke="#1f883d" stroke-opacity="0.55"/>
<rect class="chip" x="894" y="551" width="26" height="26" rx="7" fill="#f1f3f5"/><g><text class="glyph" x="907" y="568.5" text-anchor="middle" fill="#59636e" font-size="14" font-style="italic" font-family="Georgia,serif">ƒ</text></g>
<text class="ntitle" x="930" y="569" font-size="13" font-weight="600" fill="#1f2328">stillMissedWeekUpdate</text>
<g class="bdg bdg-neutral"><rect x="1140.31" y="530" width="58.14" height="16" rx="8" fill="#f1f3f5" stroke="#d1d9e0" stroke-width="1"/><text x="1169.38" y="541" text-anchor="middle" font-size="8.5" font-weight="700" letter-spacing=".06em" fill="#59636e">new field</text></g>
<g class="bdg bdg-added"><rect x="1204.45" y="530" width="40.55" height="16" rx="8" fill="#b9f0c4" stroke="rgba(31,136,61,.55)" stroke-width="1"/><text x="1224.73" y="541" text-anchor="middle" font-size="8.5" font-weight="700" letter-spacing=".06em" fill="#116329">NEW</text></g></g>
<g class="cardsh" filter="drop-shadow(0 1px 2px rgba(31,35,40,.14))"><rect class="card card-added" x="1304" y="642" width="372" height="52" rx="10" fill="#ffffff" stroke-width="1" stroke="#1f883d" stroke-opacity="0.55"/>
<rect class="chip" x="1318" y="655" width="26" height="26" rx="7" fill="#f1f3f5"/><g><text class="glyph" x="1331" y="672.5" text-anchor="middle" fill="#59636e" font-size="14" font-style="italic" font-family="Georgia,serif">ƒ</text></g>
<text class="ntitle" x="1354" y="673" font-size="13" font-weight="600" fill="#1f2328">formatMissedWeekUpdateCorrection</text>
<g class="bdg bdg-added"><rect x="1628.45" y="634" width="40.55" height="16" rx="8" fill="#b9f0c4" stroke="rgba(31,136,61,.55)" stroke-width="1"/><text x="1648.73" y="645" text-anchor="middle" font-size="8.5" font-weight="700" letter-spacing=".06em" fill="#116329">NEW</text></g></g>
<g class="cardsh" filter="drop-shadow(0 1px 2px rgba(31,35,40,.14))"><rect class="card card-modified" x="1728" y="642" width="372" height="62" rx="10" fill="#ffffff" stroke-width="1" stroke="#bf8700" stroke-opacity="0.5"/>
<rect class="chip" x="1742" y="660" width="26" height="26" rx="7" fill="#f1f3f5"/><g><rect class="glyph-stroke" x="1747" y="667" width="16" height="12" rx="2" stroke="#59636e" stroke-width="1.4" fill="none"/>
<path class="glyph-stroke" d="M1747,669 l8,6 8,-6" stroke="#59636e" stroke-width="1.4" fill="none"/></g>
<text class="ntitle" x="1778" y="669" font-size="13" font-weight="600" fill="#1f2328">captureStillUnresolvedGuard</text>
<text class="nsub" x="1778" y="687" font-size="9.5" fill="#59636e" font-family="ui-monospace, SFMono-Regular, &quot;SF Mono&quot;, Menlo, Consolas, monospace">missedWeekUpdateLanguage detector</text>
<g class="bdg bdg-neutral"><rect x="1944.68" y="634" width="75.7" height="16" rx="8" fill="#f1f3f5" stroke="#d1d9e0" stroke-width="1"/><text x="1982.53" y="645" text-anchor="middle" font-size="8.5" font-weight="700" letter-spacing=".06em" fill="#59636e">new detector</text></g>
<g class="bdg bdg-modified"><rect x="2026.38" y="634" width="66.62" height="16" rx="8" fill="#fae17d" stroke="rgba(154,103,0,.55)" stroke-width="1"/><text x="2059.69" y="645" text-anchor="middle" font-size="8.5" font-weight="700" letter-spacing=".06em" fill="#7d4e00">CHANGED</text></g></g></g>
<g><g><rect class="lpill" x="171.66" y="172.5" width="92.68" height="15" rx="7.5" fill="#ffffff" stroke="#d8dee4" stroke-width="1"/><text class="ltext" x="218" y="183.5" text-anchor="middle" font-size="9.5" font-weight="600" fill="#59636e">schedule request</text></g>
<g><rect class="lpill" x="372.47" y="284" width="115.06" height="15" rx="7.5" fill="#ffffff" stroke="#d8dee4" stroke-width="1"/><text class="ltext ltext-added" x="430" y="295" text-anchor="middle" font-size="9.5" font-weight="600" fill="#116329">claim vs week_update</text></g>
<g><rect class="lpill" x="815.94" y="401" width="92.12" height="15" rx="7.5" fill="#ffffff" stroke="#d8dee4" stroke-width="1"/><text class="ltext ltext-added" x="862" y="412" text-anchor="middle" font-size="9.5" font-weight="600" fill="#116329">missed language</text></g>
<g><rect class="lpill" x="1030.02" y="504.5" width="71.96" height="15" rx="7.5" fill="#ffffff" stroke="#d8dee4" stroke-width="1"/><text class="ltext ltext-added" x="1066" y="515.5" text-anchor="middle" font-size="9.5" font-weight="600" fill="#116329">second miss</text></g>
<g><rect class="lpill" x="1250.01" y="616.5" width="71.99" height="15" rx="7.5" fill="#ffffff" stroke="#d8dee4" stroke-width="1"/><text class="ltext ltext-added" x="1286" y="627.5" text-anchor="middle" font-size="9.5" font-weight="600" fill="#116329">append note</text></g>
<g><rect class="lpill" x="1449.37" y="608.5" width="74.77" height="15" rx="7.5" fill="#ffffff" stroke="#d8dee4" stroke-width="1"/><text class="ltext ltext-added" x="1486.75" y="619.5" text-anchor="middle" font-size="9.5" font-weight="600" fill="#116329">detector fired</text></g>
<g><rect class="lpill" x="799.1" y="271" width="93.8" height="15" rx="7.5" fill="#ffffff" stroke="#d8dee4" stroke-width="1"/><text class="ltext ltext-modified" x="846" y="282" text-anchor="middle" font-size="9.5" font-weight="600" fill="#7d4e00">tightened triggers</text></g></g>
</svg>